<?xml version="1.0" encoding="UTF-8"?>
<svg viewBox="0 0 39 44" xmlns="http://www.w3.org/2000/svg" xmlns:xlink="http://www.w3.org/1999/xlink">
 <defs>
  <filter id="e">
   <feGaussianBlur stdDeviation=".2995"/>
  </filter>
  <filter id="q" x="-.35549" y="-.29492" width="1.711" height="1.5898">
   <feGaussianBlur stdDeviation=".4915"/>
  </filter>
  <filter id="s" x="-.5837" y="-.12971" width="2.1674" height="1.2594">
   <feGaussianBlur stdDeviation=".4915"/>
  </filter>
  <filter id="c" x="-.43778" y="-.16188" width="1.8756" height="1.3238">
   <feGaussianBlur stdDeviation=".4915"/>
  </filter>
  <filter id="d" x="-.51885" y="-.19457" width="2.0377" height="1.3891">
   <feGaussianBlur stdDeviation=".4915"/>
  </filter>
  <filter id="r" x="-.22236" y="-.46365" width="1.4447" height="1.9273">
   <feGaussianBlur stdDeviation=".4915"/>
  </filter>
  <filter id="i" x="-.0456" y="-.10995" width="1.0912" height="1.2199"/>
  <linearGradient id="a">
   <stop stop-color="#ffd73b" offset="0"/>
   <stop stop-color="#ee8400" offset="1"/>
  </linearGradient>
  <linearGradient id="b">
   <stop stop-color="#f9f9f9" stop-opacity=".9852" offset="0"/>
   <stop stop-color="#d5d5d5" offset="1"/>
  </linearGradient>
  <linearGradient id="m" x1="-.30929" y1=".49825" y2=".50188" xlink:href="#a"/>
  <linearGradient id="l" x1=".06573" x2=".96944" y1=".47055" y2=".47613" xlink:href="#a"/>
  <linearGradient id="j" x2=".95665" xlink:href="#a"/>
  <linearGradient id="k" x2="3.8839" y1=".5" y2=".54559" xlink:href="#a"/>
  <linearGradient id="f" x1=".98568" x2="0" y1=".78322" y2=".29547" xlink:href="#a"/>
  <linearGradient id="h" x1=".88265" x2="-.22222" y1=".7371" y2=".221" xlink:href="#a"/>
  <linearGradient id="g" x1=".74671" x2="-.39068" y1=".18034" y2="2.8293" xlink:href="#a"/>
  <linearGradient id="o" x1=".52413" x2=".3092" y1=".68962" y2=".2828" xlink:href="#b"/>
  <linearGradient id="p" x2="0" y1=".19934" y2=".94505" xlink:href="#b"/>
  <radialGradient id="n" cx="14.737" cy="4.205" r="15.925" gradientTransform="matrix(2.652 .56778 -.20491 .95711 -27.264 -5.1499)" gradientUnits="userSpaceOnUse" xlink:href="#b"/>
 </defs>
 <path d="m28.934 17.893c4.7427-4.2932 9.7969-2.853 8.6785 3.8571-0.9642 5.7857-9.6428 9.6429-9.6428 9.6429v-3.8572s5.3188-1.9894 5.7857-3.8571c0.9643-3.8572-2.8929-3.8572-4.8214-1.9286v-3.8571z" fill="url(#f)"/>
 <path d="m5.8017 35.697c-2.903-0.4466-2.903 3.4105-0.97444 5.3391 3.8572 1.9286 24.611 2.6281 26.036 0 1.2996-2.3979 1.9286-3.8571 0-5.7857-2.1562-2.1562-23.123 0.8932-25.061 0.4466z" fill="url(#g)"/>
 <path d="m4.8272 10.179c8.7943 2.5451 17.458 2.2139 26.036 0-2.1262 9.7404-1.987 16.826 0 27-9.2034 3.5432-17.689 2.2396-26.036 0 0.60368-8.8777 1.4799-14.372 0-27z" fill="url(#h)"/>
 <path d="m8.6844 15c1.9729-1.2194 3.4957-0.9382 4.8214 0 0.5586 6.5682 0.2886 12.929 0 19.286-1.6071 1.2197-3.2143 1.5852-4.8214 0 0.45735-4.9499 1.536-10.98 0-19.286z" fill="url(#j)" fill-opacity=".8929"/>
 <path d="m5.18884,13.644c.79942,8.6769.36112,13.92-.12054,20.1596 .24108-.1408.48215-.2992.72322-.4822 .53784-6.198.95264-12.4488 0-19.2857-.19716-.1395-.39597-.284-.60268-.3917z" fill="url(#k)" fill-opacity=".8929"/>
 <path d="m16.3987,15c.9642-.9643 2.8928-.9643 4.8214,0 .4991,6.6781.3624,14.0026 0,20.25-1.6072,1.2707-3.2143,1.3275-4.8214,0-.2718-6.1568-.3744-13.4471 0-20.25z" fill="url(#l)" fill-opacity=".8929"/>
 <path d="m24.113 15c1.4346-0.5753 2.7647-1.4988 4.8215 0-1.3807 6.8888-0.4686 13.013 0 19.286-1.5245 0.9924-3.0829 1.5772-4.8215 0-0.6378-6.4286-1.0705-12.857 0-19.286z" fill="url(#m)" fill-opacity=".8929"/>
 <path d="m5.9641 19.618c-0.17256 0.203-3.0654 0.203-3.0654-1.7255s-0.96428-0.9643-0.96428-4.8215c-1.9344-4.4004 3.0238-10.986 7.7143-10.607 5.3078 1.3172 8.5714-2.4643 15.429 1.9286 3.8572 0.96428 5.7857 0 6.75 2.8928s2.8929 8.6786 0 5.7857-3.6071-2.0714-3.6071-1.0714c0 3.8571-2.2699 3.7714-4.635 2.4214s-6.2222-4.2428-7.1864-0.3857-3.8572 4.8214-3.8572 1.9286-4.8214-6.75-4.8214-2.8929-2.7102 4.0906-1.756 6.547h1e-5z" fill="url(#n)"/>
 <path d="m4.8549 9.426s-0.29793-0.8822 1.5381-2.1585 3.2556 1.5494 4.102 0.41644 1.4062-4.2453 3.6721-2.5526l2.266 1.6927s-6.4157 5.6408-11.578 2.6019z" fill="url(#o)"/>
 <path d="m19.462 5.979c1.8745-2.0482 2.4246-0.61596 2.7579 0.02105 0 0 2-2 3-1s1 2 1 2-3.8526 2.2947-6.7579-1.021z" fill="url(#p)"/>
 <path d="m5.22009,41c-1.563-2.0165-1.43489-3.0935-1-4 .56854.4736 1.80684.724 3.03158.979-1.28047.4037-3.0985.2699-2.03158,3.021z" fill="#fff" fill-opacity=".7054" filter="url(#q)"/>
 <path d="m31.5885,16.421c2.4427-.0985 4.0957.9557 5.3053,1.9369 0,0-.9263-4.0421-5.3053-1.9369z" fill="#fff" fill-opacity=".7054" filter="url(#r)"/>
 <path d="m9.02009,15.4105c.60312,3.2065.66264,5.5975.84211,8.1685 .3395-3.0928-.5616-7.6033 1.1789-9.0948-.6736.0964-1.34733.1743-2.02101.9263z" fill="#fff" fill-opacity=".7054" filter="url(#s)"/>
 <path d="m16.4306,21.8947 .1684-6.5684c.8421-1.1008 1.6842-.5859 2.5264-.6737-2.6138,2.071-2.1307,4.7613-2.6948,7.2421z" fill="#fff" fill-opacity=".7054" filter="url(#c)"/>
 <path d="m23.7569,21.2211-.0842-5.3053c.9481-1.2034 1.5251-.5519 2.2737-.7579-1.6725,1.0783-1.8021,3.6996-2.1895,6.0632z" fill="#fff" fill-opacity=".7054" filter="url(#d)"/>
 <path d="m2.2832 11.453c-0.00437-0.3235 2.4771-7.6458 8.421-7.8316 4.2104 0.03754 8.8411-0.41517 11.79 1.0947-1.136-2.7626-7.726-2.1357-11.621-1.4316-2.4115-1.6729-8.9281 1.7862-8.5894 8.1684z" fill="#fff" filter="url(#e)"/>
 <path d="m5.3148 9.0105c1.2082-2.0592 3.1219-1.6487 5.2211-0.58948 1.6764-4.1975 2.9781-3.711 4.2105-2.3579-2.024-1.1465-3.0475 0.95874-4.2105 2.6105-1.8627-0.43813-3.7896-1.1654-5.2211 0.33685z" fill="#fff" filter="url(#i)"/>
</svg>
